# Blender v2.81 (sub 16) OBJ File: ''
# www.blender.org
mtllib rocks.mtl
o Icosphere
v 0.954790 2.253427 -0.030632
v 0.138393 1.615304 0.459235
v 0.587012 1.429731 0.820017
v 0.936609 1.170904 -0.030632
v 0.610682 1.600620 -0.934770
v 0.021352 1.848509 -0.556358
v -0.573740 0.515707 0.820017
v 0.124789 -0.065165 0.532082
v 0.124789 -0.065165 -0.519368
v -0.573740 0.515707 -0.881281
v -0.806296 0.541329 -0.066491
v -0.941518 -0.307988 -0.030632
v 0.905083 1.994126 0.469363
v 0.572598 2.240276 0.278379
v 0.356421 1.756120 0.778379
v 0.140976 1.769062 -0.066491
v 0.572598 2.240276 -0.339644
v 1.110570 1.841990 -0.030632
v 0.894398 1.357834 0.469365
v 0.928753 2.165015 -0.584116
v 0.918068 1.528722 -0.584117
v 0.380092 1.927009 -0.893132
v -0.414301 1.137798 0.242522
v -0.531342 1.371004 -0.339645
v 0.006636 0.972719 0.969368
v -0.208811 0.985667 0.742526
v 0.677482 0.412341 0.315370
v 0.339124 0.726566 0.778385
v 0.362795 0.897455 -0.893137
v 0.544613 0.574435 -0.339645
v -0.325852 1.218872 -0.839649
v 0.030307 1.143608 -1.084120
v -0.764085 0.354399 0.433506
v -0.343149 0.189319 0.778379
v 0.122205 -0.218923 0.006357
v -0.343149 0.189319 -0.839644
v -0.881126 0.587605 -0.530629
v -0.891811 -0.048687 0.469363
v -1.097299 0.103448 -0.030632
v -0.426458 -0.456931 0.315368
v -0.426458 -0.456931 -0.302655
v -0.891811 -0.048687 -0.530627
vt 0.818181 0.000000
vt 0.772726 0.078731
vt 0.863635 0.078731
vt 0.727272 0.157461
vt 0.681818 0.078731
vt 0.636363 0.157461
vt 0.090909 0.000000
vt 0.045454 0.078731
vt 0.136363 0.078731
vt 0.272727 0.000000
vt 0.227273 0.078731
vt 0.318182 0.078731
vt 0.454545 0.000000
vt 0.409090 0.078731
vt 0.500000 0.078731
vt 0.681818 0.236191
vt 0.909090 0.157461
vt 0.818181 0.157461
vt 0.863635 0.236191
vt 0.181818 0.157461
vt 0.090909 0.157461
vt 0.136363 0.236191
vt 0.363636 0.157461
vt 0.272727 0.157461
vt 0.318182 0.236191
vt 0.545454 0.157461
vt 0.454545 0.157461
vt 0.500000 0.236191
vt 0.772726 0.236191
vt 0.954545 0.236191
vt 0.227273 0.236191
vt 0.409090 0.236191
vt 0.590909 0.236191
vt 0.818181 0.314921
vt 0.727272 0.314921
vt 0.772726 0.393651
vt 1.000000 0.314921
vt 0.909091 0.314921
vt 0.954545 0.393651
vt 0.272727 0.314921
vt 0.181818 0.314921
vt 0.227273 0.393651
vt 0.454545 0.314921
vt 0.363636 0.314921
vt 0.409090 0.393651
vt 0.636363 0.314921
vt 0.545454 0.314921
vt 0.590909 0.393651
vt 0.500000 0.393651
vt 0.545454 0.472382
vt 0.318182 0.393651
vt 0.363636 0.472382
vt 0.136363 0.393651
vt 0.181818 0.472382
vt 0.090909 0.314921
vt 0.863635 0.393651
vt 0.909090 0.472382
vt 0.681818 0.393651
vt 0.727272 0.472382
vt 0.045454 0.236191
vt 0.000000 0.157461
vt 0.590909 0.078731
vt 0.636363 0.000000
vn 0.5783 0.8106 0.0919
vn -0.2696 0.8962 0.3522
vn 0.6348 0.4471 0.6301
vn -0.7465 0.6118 0.2614
vn -0.6761 0.7039 0.2175
vn 0.9980 0.0501 0.0395
vn 0.5837 0.6222 -0.5217
vn -0.3129 0.9387 -0.1449
vn -0.7519 0.5423 0.3749
vn 0.4774 0.0240 0.8783
vn -0.2888 0.5741 0.7661
vn -0.1534 0.1100 0.9820
vn 0.9433 -0.3236 -0.0738
vn 0.8647 -0.1765 0.4702
vn 0.8445 -0.4821 0.2331
vn 0.4774 0.0240 -0.8783
vn 0.8601 -0.2071 -0.4661
vn 0.5484 -0.3516 -0.7587
vn -0.6372 0.7531 -0.1637
vn -0.1710 0.6185 -0.7669
vn -0.6302 0.4158 -0.6557
vn -0.6859 0.5314 0.4970
vn 0.4864 -0.3035 0.8193
vn 0.8189 -0.4458 -0.3616
vn -0.0851 0.0454 -0.9953
vn -0.7920 0.6105 -0.0031
vn -0.6429 0.2102 0.7365
vn -0.8517 0.4195 0.3139
vn -0.7173 -0.2945 0.6314
vn 0.4672 -0.6409 0.6089
vn -0.0335 -0.4093 0.9118
vn -0.0059 -0.9073 0.4205
vn 0.5709 -0.6270 -0.5300
vn 0.6313 -0.7750 -0.0270
vn 0.0189 -0.9218 -0.3872
vn -0.4878 -0.0316 -0.8724
vn 0.0015 -0.4477 -0.8941
vn -0.6595 -0.4113 -0.6291
vn -0.8492 0.4739 0.2331
vn -0.9006 0.2828 -0.3300
vn -0.9955 0.0692 0.0648
vn -0.7023 -0.7118 -0.0099
g Icosphere_Icosphere_Material.001
usemtl Material.001
s 1
f 1/1/1 14/2/2 13/3/3
f 2/4/4 14/5/2 16/6/5
f 1/7/1 13/8/3 18/9/6
f 1/10/1 18/11/6 20/12/7
f 1/13/1 20/14/7 17/15/8
f 2/4/4 16/6/5 23/16/9
f 3/17/10 15/18/11 25/19/12
f 4/20/13 19/21/14 27/22/15
f 5/23/16 21/24/17 29/25/18
f 6/26/19 22/27/20 31/28/21
f 2/4/4 23/16/9 26/29/22
f 3/17/10 25/19/12 28/30/23
f 4/20/13 27/22/15 30/31/24
f 5/23/16 29/25/18 32/32/25
f 6/26/19 31/28/21 24/33/26
f 7/34/27 33/35/28 38/36/29
f 8/37/30 34/38/31 40/39/32
f 9/40/33 35/41/34 41/42/35
f 10/43/36 36/44/37 42/45/38
f 11/46/39 37/47/40 39/48/41
f 39/48/41 42/49/38 12/50/42
f 39/48/41 37/47/40 42/49/38
f 37/47/40 10/43/36 42/49/38
f 42/45/38 41/51/35 12/52/42
f 42/45/38 36/44/37 41/51/35
f 36/44/37 9/40/33 41/51/35
f 41/42/35 40/53/32 12/54/42
f 41/42/35 35/41/34 40/53/32
f 35/41/34 8/55/30 40/53/32
f 40/39/32 38/56/29 12/57/42
f 40/39/32 34/38/31 38/56/29
f 34/38/31 7/34/27 38/56/29
f 38/36/29 39/58/41 12/59/42
f 38/36/29 33/35/28 39/58/41
f 33/35/28 11/46/39 39/58/41
f 24/33/26 37/47/40 11/46/39
f 24/33/26 31/28/21 37/47/40
f 31/28/21 10/43/36 37/47/40
f 32/32/25 36/44/37 10/43/36
f 32/32/25 29/25/18 36/44/37
f 29/25/18 9/40/33 36/44/37
f 30/31/24 35/41/34 9/40/33
f 30/31/24 27/22/15 35/41/34
f 27/22/15 8/55/30 35/41/34
f 28/30/23 34/38/31 8/37/30
f 28/30/23 25/19/12 34/38/31
f 25/19/12 7/34/27 34/38/31
f 26/29/22 33/35/28 7/34/27
f 26/29/22 23/16/9 33/35/28
f 23/16/9 11/46/39 33/35/28
f 31/28/21 32/32/25 10/43/36
f 31/28/21 22/27/20 32/32/25
f 22/27/20 5/23/16 32/32/25
f 29/25/18 30/31/24 9/40/33
f 29/25/18 21/24/17 30/31/24
f 21/24/17 4/20/13 30/31/24
f 27/22/15 28/60/23 8/55/30
f 27/22/15 19/21/14 28/60/23
f 19/21/14 3/61/10 28/60/23
f 25/19/12 26/29/22 7/34/27
f 25/19/12 15/18/11 26/29/22
f 15/18/11 2/4/4 26/29/22
f 23/16/9 24/33/26 11/46/39
f 23/16/9 16/6/5 24/33/26
f 16/6/5 6/26/19 24/33/26
f 17/15/8 22/27/20 6/26/19
f 17/15/8 20/14/7 22/27/20
f 20/14/7 5/23/16 22/27/20
f 20/12/7 21/24/17 5/23/16
f 20/12/7 18/11/6 21/24/17
f 18/11/6 4/20/13 21/24/17
f 18/9/6 19/21/14 4/20/13
f 18/9/6 13/8/3 19/21/14
f 13/8/3 3/61/10 19/21/14
f 16/6/5 17/62/8 6/26/19
f 16/6/5 14/5/2 17/62/8
f 14/5/2 1/63/1 17/62/8
f 13/3/3 15/18/11 3/17/10
f 13/3/3 14/2/2 15/18/11
f 14/2/2 2/4/4 15/18/11
o Icosphere.001
v -1.345969 2.775225 1.890164
v -1.932288 1.838739 1.101811
v -2.229768 1.711654 1.935382
v -1.323969 1.442693 2.562862
v -0.470640 1.880156 1.712016
v -0.934743 2.074533 0.686626
v -2.364757 0.353595 0.759792
v -1.969233 -0.224946 2.174517
v -0.914771 -0.252559 2.085335
v -0.658586 0.308916 0.615492
v -1.507467 0.314470 0.314017
v -1.542385 -0.754655 0.660711
v -1.848207 2.459945 2.024669
v -1.706809 2.689469 1.343093
v -2.226295 2.064318 1.369668
v -1.408181 2.014202 0.961674
v -1.087016 2.673239 1.290673
v -1.315795 2.301854 2.393493
v -1.835277 1.676702 2.420074
v -0.792395 2.646865 1.860786
v -0.779462 1.863622 2.256191
v -0.550680 2.235007 1.153365
v -1.778275 1.134491 0.551034
v -1.215397 1.381668 0.172611
v -2.447041 1.036547 1.360255
v -2.248727 1.002667 1.004675
v -1.688579 0.467919 2.688533
v -2.205378 0.796988 2.009442
v -0.529753 0.967677 1.793138
v -1.053162 0.622672 2.325845
v -0.682976 1.223582 0.541433
v -0.388356 1.197204 1.111554
v -1.999017 0.106722 0.541621
v -2.284717 -0.001256 1.318444
v -1.438878 -0.428022 2.225473
v -0.662060 -0.043748 1.181207
v -1.053077 0.343868 0.130800
v -2.043002 -0.413114 0.611023
v -1.572559 -0.281283 0.157382
v -1.816961 -0.823652 1.570469
v -1.197168 -0.839882 1.518050
v -1.040147 -0.439375 0.526206
vt 0.818181 0.000000
vt 0.772726 0.078731
vt 0.863635 0.078731
vt 0.727272 0.157461
vt 0.681818 0.078731
vt 0.636363 0.157461
vt 0.090909 0.000000
vt 0.045454 0.078731
vt 0.136363 0.078731
vt 0.272727 0.000000
vt 0.227273 0.078731
vt 0.318182 0.078731
vt 0.454545 0.000000
vt 0.409090 0.078731
vt 0.500000 0.078731
vt 0.681818 0.236191
vt 0.909090 0.157461
vt 0.818181 0.157461
vt 0.863635 0.236191
vt 0.181818 0.157461
vt 0.090909 0.157461
vt 0.136363 0.236191
vt 0.363636 0.157461
vt 0.272727 0.157461
vt 0.318182 0.236191
vt 0.545454 0.157461
vt 0.454545 0.157461
vt 0.500000 0.236191
vt 0.772726 0.236191
vt 0.954545 0.236191
vt 0.227273 0.236191
vt 0.409090 0.236191
vt 0.590909 0.236191
vt 0.818181 0.314921
vt 0.727272 0.314921
vt 0.772726 0.393651
vt 1.000000 0.314921
vt 0.909091 0.314921
vt 0.954545 0.393651
vt 0.272727 0.314921
vt 0.181818 0.314921
vt 0.227273 0.393651
vt 0.454545 0.314921
vt 0.363636 0.314921
vt 0.409090 0.393651
vt 0.636363 0.314921
vt 0.545454 0.314921
vt 0.590909 0.393651
vt 0.500000 0.393651
vt 0.545454 0.472382
vt 0.318182 0.393651
vt 0.363636 0.472382
vt 0.136363 0.393651
vt 0.181818 0.472382
vt 0.090909 0.314921
vt 0.863635 0.393651
vt 0.909090 0.472382
vt 0.681818 0.393651
vt 0.727272 0.472382
vt 0.045454 0.236191
vt 0.000000 0.157461
vt 0.590909 0.078731
vt 0.636363 0.000000
vn -0.0652 0.9445 0.3220
vn -0.4197 0.7943 -0.4391
vn -0.6214 0.6226 0.4756
vn -0.4726 0.3735 -0.7982
vn -0.3988 0.5177 -0.7570
vn 0.0433 0.4715 0.8808
vn 0.6069 0.7330 0.3071
vn 0.1774 0.8540 -0.4891
vn -0.6215 0.2730 -0.7342
vn -0.8864 0.2050 0.4150
vn -0.8407 0.4287 -0.3308
vn -0.9960 0.0725 -0.0514
vn 0.1992 0.0877 0.9760
vn -0.5307 0.2033 0.8228
vn -0.1873 -0.1658 0.9682
vn 0.9529 0.1569 0.2594
vn 0.6725 0.1374 0.7272
vn 0.9092 -0.1314 0.3950
vn 0.1662 0.5985 -0.7837
vn 0.8043 0.4887 -0.3382
vn 0.7606 0.1370 -0.6346
vn -0.7393 0.2767 -0.6138
vn -0.8851 -0.0580 0.4618
vn 0.6048 -0.1297 0.7857
vn 0.9883 -0.0158 -0.1520
vn -0.0630 0.3554 -0.9326
vn -0.8175 0.0531 -0.5734
vn -0.5494 0.0882 -0.8308
vn -0.7385 -0.4926 -0.4602
vn -0.6790 -0.4472 0.5822
vn -0.9427 -0.3155 0.1086
vn -0.4696 -0.8571 0.2118
vn 0.6854 -0.4213 0.5938
vn 0.0886 -0.6244 0.7760
vn 0.4294 -0.8899 0.1539
vn 0.8807 -0.2157 -0.4216
vn 0.9210 -0.3892 -0.0170
vn 0.6199 -0.6073 -0.4969
vn -0.4438 0.1520 -0.8831
vn 0.3096 -0.0833 -0.9472
vn -0.1868 -0.3141 -0.9308
vn -0.0503 -0.9040 -0.4245
g Icosphere.001_Icosphere.001_Material.001
usemtl Material.001
s 1
f 43/64/43 56/65/44 55/66/45
f 44/67/46 56/68/44 58/69/47
f 43/70/43 55/71/45 60/72/48
f 43/73/43 60/74/48 62/75/49
f 43/76/43 62/77/49 59/78/50
f 44/67/46 58/69/47 65/79/51
f 45/80/52 57/81/53 67/82/54
f 46/83/55 61/84/56 69/85/57
f 47/86/58 63/87/59 71/88/60
f 48/89/61 64/90/62 73/91/63
f 44/67/46 65/79/51 68/92/64
f 45/80/52 67/82/54 70/93/65
f 46/83/55 69/85/57 72/94/66
f 47/86/58 71/88/60 74/95/67
f 48/89/61 73/91/63 66/96/68
f 49/97/69 75/98/70 80/99/71
f 50/100/72 76/101/73 82/102/74
f 51/103/75 77/104/76 83/105/77
f 52/106/78 78/107/79 84/108/80
f 53/109/81 79/110/82 81/111/83
f 81/111/83 84/112/80 54/113/84
f 81/111/83 79/110/82 84/112/80
f 79/110/82 52/106/78 84/112/80
f 84/108/80 83/114/77 54/115/84
f 84/108/80 78/107/79 83/114/77
f 78/107/79 51/103/75 83/114/77
f 83/105/77 82/116/74 54/117/84
f 83/105/77 77/104/76 82/116/74
f 77/104/76 50/118/72 82/116/74
f 82/102/74 80/119/71 54/120/84
f 82/102/74 76/101/73 80/119/71
f 76/101/73 49/97/69 80/119/71
f 80/99/71 81/121/83 54/122/84
f 80/99/71 75/98/70 81/121/83
f 75/98/70 53/109/81 81/121/83
f 66/96/68 79/110/82 53/109/81
f 66/96/68 73/91/63 79/110/82
f 73/91/63 52/106/78 79/110/82
f 74/95/67 78/107/79 52/106/78
f 74/95/67 71/88/60 78/107/79
f 71/88/60 51/103/75 78/107/79
f 72/94/66 77/104/76 51/103/75
f 72/94/66 69/85/57 77/104/76
f 69/85/57 50/118/72 77/104/76
f 70/93/65 76/101/73 50/100/72
f 70/93/65 67/82/54 76/101/73
f 67/82/54 49/97/69 76/101/73
f 68/92/64 75/98/70 49/97/69
f 68/92/64 65/79/51 75/98/70
f 65/79/51 53/109/81 75/98/70
f 73/91/63 74/95/67 52/106/78
f 73/91/63 64/90/62 74/95/67
f 64/90/62 47/86/58 74/95/67
f 71/88/60 72/94/66 51/103/75
f 71/88/60 63/87/59 72/94/66
f 63/87/59 46/83/55 72/94/66
f 69/85/57 70/123/65 50/118/72
f 69/85/57 61/84/56 70/123/65
f 61/84/56 45/124/52 70/123/65
f 67/82/54 68/92/64 49/97/69
f 67/82/54 57/81/53 68/92/64
f 57/81/53 44/67/46 68/92/64
f 65/79/51 66/96/68 53/109/81
f 65/79/51 58/69/47 66/96/68
f 58/69/47 48/89/61 66/96/68
f 59/78/50 64/90/62 48/89/61
f 59/78/50 62/77/49 64/90/62
f 62/77/49 47/86/58 64/90/62
f 62/75/49 63/87/59 47/86/58
f 62/75/49 60/74/48 63/87/59
f 60/74/48 46/83/55 63/87/59
f 60/72/48 61/84/56 46/83/55
f 60/72/48 55/71/45 61/84/56
f 55/71/45 45/124/52 61/84/56
f 58/69/47 59/125/50 48/89/61
f 58/69/47 56/68/44 59/125/50
f 56/68/44 43/126/43 59/125/50
f 55/66/45 57/81/53 45/80/52
f 55/66/45 56/65/44 57/81/53
f 56/65/44 44/67/46 57/81/53
o Icosphere.002
v -2.152268 2.413938 -1.544701
v -1.279730 1.624347 -0.896116
v -1.185372 1.424761 -1.513548
v -2.121653 1.134300 -1.483551
v -2.770082 1.627677 -0.759107
v -2.131943 1.894722 -0.329752
v -0.567470 0.294159 -0.279329
v -1.174623 -0.361475 -0.848897
v -2.114828 -0.361475 -0.378191
v -2.088767 0.294159 0.482296
v -1.240478 0.314246 0.356640
v -1.121871 -0.695018 0.513448
v -1.674397 2.105435 -1.707063
v -1.678139 2.381669 -1.287922
v -1.109810 1.800246 -1.269609
v -1.754182 1.806103 -0.669450
v -2.230773 2.381669 -1.011250
v -2.224726 1.934706 -1.689432
v -1.656402 1.353282 -1.671122
v -2.632000 2.308352 -1.266578
v -2.614008 1.556198 -1.230636
v -2.620056 2.003162 -0.552448
v -1.178470 1.036048 -0.209769
v -1.643115 1.306422 0.162562
v -0.742872 0.859460 -0.963299
v -0.834603 0.865323 -0.639813
v -1.663451 0.226825 -1.341211
v -1.080687 0.583223 -1.211448
v -2.590941 0.786139 -0.494282
v -2.183661 0.412498 -0.917142
v -2.193453 1.135698 0.180195
v -2.594680 1.062376 -0.075137
v -0.811537 0.095264 0.096541
v -0.717497 -0.081326 -0.485989
v -1.640377 -0.543231 -0.604857
v -2.164329 -0.081326 0.238356
v -1.617737 0.365638 0.639870
v -0.705553 -0.386515 0.228141
v -1.049413 -0.215785 0.658180
v -1.075793 -0.848422 -0.167399
v -1.628427 -0.848422 0.109273
v -1.599742 -0.386515 0.675810
vt 0.818181 0.000000
vt 0.772726 0.078731
vt 0.863635 0.078731
vt 0.727272 0.157461
vt 0.681818 0.078731
vt 0.636363 0.157461
vt 0.090909 0.000000
vt 0.045454 0.078731
vt 0.136363 0.078731
vt 0.272727 0.000000
vt 0.227273 0.078731
vt 0.318182 0.078731
vt 0.454545 0.000000
vt 0.409090 0.078731
vt 0.500000 0.078731
vt 0.681818 0.236191
vt 0.909090 0.157461
vt 0.818181 0.157461
vt 0.863635 0.236191
vt 0.181818 0.157461
vt 0.090909 0.157461
vt 0.136363 0.236191
vt 0.363636 0.157461
vt 0.272727 0.157461
vt 0.318182 0.236191
vt 0.545454 0.157461
vt 0.454545 0.157461
vt 0.500000 0.236191
vt 0.772726 0.236191
vt 0.954545 0.236191
vt 0.227273 0.236191
vt 0.409090 0.236191
vt 0.590909 0.236191
vt 0.818181 0.314921
vt 0.727272 0.314921
vt 0.772726 0.393651
vt 1.000000 0.314921
vt 0.909091 0.314921
vt 0.954545 0.393651
vt 0.272727 0.314921
vt 0.181818 0.314921
vt 0.227273 0.393651
vt 0.454545 0.314921
vt 0.363636 0.314921
vt 0.409090 0.393651
vt 0.636363 0.314921
vt 0.545454 0.314921
vt 0.590909 0.393651
vt 0.500000 0.393651
vt 0.545454 0.472382
vt 0.318182 0.393651
vt 0.363636 0.472382
vt 0.136363 0.393651
vt 0.181818 0.472382
vt 0.090909 0.314921
vt 0.863635 0.393651
vt 0.909090 0.472382
vt 0.681818 0.393651
vt 0.727272 0.472382
vt 0.045454 0.236191
vt 0.000000 0.157461
vt 0.590909 0.078731
vt 0.636363 0.000000
vn -0.1605 0.8092 -0.5652
vn 0.4740 0.8768 0.0804
vn 0.3371 0.4061 -0.8494
vn 0.5889 0.6047 0.5362
vn 0.5236 0.6900 0.4998
vn -0.4068 0.0188 -0.9133
vn -0.7563 0.6029 -0.2540
vn -0.0069 0.9245 0.3811
vn 0.7043 0.5300 0.4722
vn 0.6102 0.0011 -0.7923
vn 0.8418 0.5341 -0.0783
vn 0.9465 0.1090 -0.3037
vn -0.4887 -0.3435 -0.8019
vn 0.0765 -0.1980 -0.9772
vn -0.1562 -0.4881 -0.8586
vn -0.9999 0.0011 0.0138
vn -0.8250 -0.2224 -0.5195
vn -0.9356 -0.3342 -0.1139
vn 0.1384 0.7404 0.6577
vn -0.6229 0.5818 0.5228
vn -0.3506 0.4000 0.8468
vn 0.7842 0.5129 0.3493
vn 0.5542 -0.2828 -0.7829
vn -0.7181 -0.4458 -0.5344
vn -0.8547 0.0450 0.5171
vn 0.3464 0.6105 0.7122
vn 0.9468 0.2367 0.2178
vn 0.6816 0.4269 0.5943
vn 0.9152 -0.2619 0.3063
vn 0.3594 -0.6127 -0.7038
vn 0.8432 -0.3584 -0.4007
vn 0.3973 -0.8912 -0.2188
vn -0.7565 -0.6012 -0.2573
vn -0.3083 -0.7663 -0.5636
vn -0.3952 -0.9061 0.1510
vn -0.6024 -0.0070 0.7981
vn -0.8274 -0.3958 0.3983
vn -0.3240 -0.3704 0.8705
vn 0.6062 0.4780 0.6356
vn 0.0861 0.3071 0.9478
vn 0.5009 0.0852 0.8613
vn 0.3062 -0.7082 0.6362
g Icosphere.002_Icosphere.002_Material.001
usemtl Material.001
s 1
f 85/127/85 98/128/86 97/129/87
f 86/130/88 98/131/86 100/132/89
f 85/133/85 97/134/87 102/135/90
f 85/136/85 102/137/90 104/138/91
f 85/139/85 104/140/91 101/141/92
f 86/130/88 100/132/89 107/142/93
f 87/143/94 99/144/95 109/145/96
f 88/146/97 103/147/98 111/148/99
f 89/149/100 105/150/101 113/151/102
f 90/152/103 106/153/104 115/154/105
f 86/130/88 107/142/93 110/155/106
f 87/143/94 109/145/96 112/156/107
f 88/146/97 111/148/99 114/157/108
f 89/149/100 113/151/102 116/158/109
f 90/152/103 115/154/105 108/159/110
f 91/160/111 117/161/112 122/162/113
f 92/163/114 118/164/115 124/165/116
f 93/166/117 119/167/118 125/168/119
f 94/169/120 120/170/121 126/171/122
f 95/172/123 121/173/124 123/174/125
f 123/174/125 126/175/122 96/176/126
f 123/174/125 121/173/124 126/175/122
f 121/173/124 94/169/120 126/175/122
f 126/171/122 125/177/119 96/178/126
f 126/171/122 120/170/121 125/177/119
f 120/170/121 93/166/117 125/177/119
f 125/168/119 124/179/116 96/180/126
f 125/168/119 119/167/118 124/179/116
f 119/167/118 92/181/114 124/179/116
f 124/165/116 122/182/113 96/183/126
f 124/165/116 118/164/115 122/182/113
f 118/164/115 91/160/111 122/182/113
f 122/162/113 123/184/125 96/185/126
f 122/162/113 117/161/112 123/184/125
f 117/161/112 95/172/123 123/184/125
f 108/159/110 121/173/124 95/172/123
f 108/159/110 115/154/105 121/173/124
f 115/154/105 94/169/120 121/173/124
f 116/158/109 120/170/121 94/169/120
f 116/158/109 113/151/102 120/170/121
f 113/151/102 93/166/117 120/170/121
f 114/157/108 119/167/118 93/166/117
f 114/157/108 111/148/99 119/167/118
f 111/148/99 92/181/114 119/167/118
f 112/156/107 118/164/115 92/163/114
f 112/156/107 109/145/96 118/164/115
f 109/145/96 91/160/111 118/164/115
f 110/155/106 117/161/112 91/160/111
f 110/155/106 107/142/93 117/161/112
f 107/142/93 95/172/123 117/161/112
f 115/154/105 116/158/109 94/169/120
f 115/154/105 106/153/104 116/158/109
f 106/153/104 89/149/100 116/158/109
f 113/151/102 114/157/108 93/166/117
f 113/151/102 105/150/101 114/157/108
f 105/150/101 88/146/97 114/157/108
f 111/148/99 112/186/107 92/181/114
f 111/148/99 103/147/98 112/186/107
f 103/147/98 87/187/94 112/186/107
f 109/145/96 110/155/106 91/160/111
f 109/145/96 99/144/95 110/155/106
f 99/144/95 86/130/88 110/155/106
f 107/142/93 108/159/110 95/172/123
f 107/142/93 100/132/89 108/159/110
f 100/132/89 90/152/103 108/159/110
f 101/141/92 106/153/104 90/152/103
f 101/141/92 104/140/91 106/153/104
f 104/140/91 89/149/100 106/153/104
f 104/138/91 105/150/101 89/149/100
f 104/138/91 102/137/90 105/150/101
f 102/137/90 88/146/97 105/150/101
f 102/135/90 103/147/98 88/146/97
f 102/135/90 97/134/87 103/147/98
f 97/134/87 87/187/94 103/147/98
f 100/132/89 101/188/92 90/152/103
f 100/132/89 98/131/86 101/188/92
f 98/131/86 85/189/85 101/188/92
f 97/129/87 99/144/95 87/143/94
f 97/129/87 98/128/86 99/144/95
f 98/128/86 86/130/88 99/144/95
