# Blender v2.81 (sub 16) OBJ File: 'untitled.blend'
# www.blender.org
mtllib shed.mtl
o Cube_Cube.001
v -13.152038 7.197368 7.197366
v 13.152040 7.197366 7.197366
v -13.152038 7.197368 -7.197366
v 13.152040 7.197366 -7.197366
v -13.152040 -7.197366 7.197366
v 13.152038 -7.197368 7.197366
v -13.152040 -7.197366 -7.197366
v 13.152038 -7.197368 -7.197366
v -13.152038 7.197368 7.197366
v -13.152038 7.197368 -7.197366
v 13.152040 7.197366 -7.197366
v -13.152038 7.197368 0.000000
v 0.000001 7.197367 7.197366
v 13.152040 7.197366 0.000000
v 0.000001 7.197367 -7.197366
v -13.152039 0.000001 -7.197366
v 13.152039 -0.000001 -7.197366
v -0.000001 -7.197367 -7.197366
v -13.152040 -7.197366 0.000000
v 13.152038 -7.197368 0.000000
v -0.000001 -7.197367 7.197366
v -13.152039 0.000001 7.197366
v 13.152039 -0.000001 7.197366
v 0.000001 7.197367 0.000000
v -13.152039 0.000001 0.000000
v 0.000000 0.000000 7.197366
v 13.152039 -0.000001 0.000000
v 0.000000 0.000000 -7.197366
v -13.152038 7.197368 0.000000
v 0.000001 7.197367 -7.197366
v 0.000001 7.197367 0.000000
vt 1.000997 0.522321
vt 0.500384 0.635363
vt 0.500373 0.521858
vt -0.000230 0.748405
vt 0.500626 0.748267
vt -0.001047 0.999512
vt -0.000977 0.875000
vt 0.249929 0.999547
vt 0.500071 0.751535
vt 0.249583 0.751012
vt 0.500488 0.875559
vt 0.994088 0.259974
vt 0.500977 0.258997
vt 0.997018 0.130013
vt 0.999563 1.000254
vt 0.749055 1.000062
vt 0.999477 0.875369
vt 0.497176 0.749309
vt 0.748284 0.749897
vt 0.497862 0.874590
vt 0.000096 0.748142
vt 0.499824 0.633562
vt 0.500457 0.748030
vt -0.000095 0.519627
vt 0.000000 0.633885
vt 0.499728 0.519304
vt 0.003854 0.002161
vt 0.501953 0.001185
vt 0.002877 0.128548
vt 0.500977 0.127572
vt 0.001901 0.254935
vt 1.000052 0.000208
vt 0.999552 0.518981
vt 1.000185 0.633450
vt 1.000818 0.747918
vt 0.748970 0.875177
vt 0.498548 0.999871
vt 0.999392 0.750484
vt 0.503906 0.129036
vt 0.999948 0.000052
vt 0.007865 0.258020
vt 0.250000 0.875035
vt 0.500906 0.999582
vt -0.000906 0.750488
vt 1.001239 0.635225
vt 1.001481 0.748130
vt -0.000240 0.634900
vt -0.000251 0.521395
vn 0.0000 0.0000 -1.0000
vn 1.0000 -0.0000 0.0000
vn -1.0000 0.0000 0.0000
vn -0.0000 -1.0000 0.0000
vn 0.0000 0.0000 1.0000
usemtl Material.001
s off
f 5/1/1 26/2/1 21/3/1
f 2/4/1 26/2/1 13/5/1
f 1/6/2 22/7/2 12/8/2
f 7/9/3 19/10/3 16/11/3
f 2/12/4 13/13/4 14/14/4
f 2/15/3 14/16/3 23/17/3
f 8/18/3 20/19/3 17/20/3
f 3/21/5 28/22/5 15/23/5
f 7/24/1 16/25/1 18/26/1
f 10/27/4 30/28/4 29/29/4
f 29/29/4 31/30/4 9/31/4
f 29/29/4 30/28/4 31/30/4
f 30/28/4 11/32/4 31/30/4
f 18/26/1 28/22/1 8/33/1
f 18/26/1 16/25/1 28/22/1
f 16/25/1 3/21/1 28/22/1
f 15/23/5 17/34/5 4/35/5
f 15/23/5 28/22/5 17/34/5
f 28/22/5 8/33/5 17/34/5
f 17/20/3 27/36/3 4/37/3
f 17/20/3 20/19/3 27/36/3
f 20/19/3 6/38/3 27/36/3
f 23/17/3 27/36/3 6/38/3
f 23/17/3 14/16/3 27/36/3
f 14/16/3 4/37/3 27/36/3
f 14/14/4 24/39/4 4/40/4
f 14/14/4 13/13/4 24/39/4
f 13/13/4 1/41/4 24/39/4
f 16/11/3 25/42/3 3/43/3
f 16/11/3 19/10/3 25/42/3
f 19/10/3 5/44/3 25/42/3
f 12/8/2 25/42/2 3/43/2
f 12/8/2 22/7/2 25/42/2
f 22/7/2 5/44/2 25/42/2
f 13/5/1 22/45/1 1/46/1
f 13/5/1 26/2/1 22/45/1
f 26/2/1 5/1/1 22/45/1
f 21/3/1 23/47/1 6/48/1
f 21/3/1 26/2/1 23/47/1
f 26/2/1 2/4/1 23/47/1
