# Blender v2.81 (sub 16) OBJ File: 'tree.blend'
# www.blender.org
mtllib tree2.mtl
o Cube_Cube.001
v -0.584429 0.000000 0.584429
v -0.427256 2.000000 0.427256
v -0.584429 0.000000 -0.584429
v -0.427256 2.000000 -0.427256
v 0.584429 0.000000 0.584429
v 0.427256 2.000000 0.427256
v 0.584429 0.000000 -0.584429
v 0.427256 2.000000 -0.427256
v 0.128245 3.904371 0.560869
v 0.128245 3.904371 -0.126617
v 0.815731 3.904371 0.560869
v 0.815731 3.904371 -0.126617
v -0.184326 6.737532 0.262724
v -0.184326 6.737532 -0.262724
v 0.341122 6.737532 0.262724
v 0.341122 6.737532 -0.262724
v -0.662838 8.463283 -0.650974
v -0.662838 8.463283 -0.990163
v -0.323650 8.463283 -0.650974
v -0.323650 8.463283 -0.990163
v -0.087859 6.719352 1.765185
v -0.087859 6.719352 1.261009
v 0.416316 6.719352 1.765185
v 0.416316 6.719352 1.261009
v 0.707412 8.328478 2.607468
v 0.707412 8.328478 2.382121
v 0.932759 8.328478 2.607468
v 0.932759 8.328478 2.382121
v 1.232834 5.783412 0.432797
v 1.232834 5.783412 -0.063899
v 1.729531 5.783412 0.432797
v 1.729531 5.783412 -0.063899
v 2.045373 7.809385 0.313720
v 2.045373 7.809385 0.055178
v 2.303916 7.809385 0.313720
v 2.303916 7.809385 0.055178
vt 3.237453 1.132964
vt 3.288659 0.107762
vt 4.023427 0.046936
vt 4.242517 1.049763
vt -0.615119 0.940029
vt -0.479508 -0.076353
vt 0.257773 -0.076353
vt 0.393384 0.940028
vt 1.876973 1.154715
vt 2.135306 0.161524
vt 2.867113 0.251201
vt 2.877987 1.277382
vt -2.166363 -3.193546
vt -2.301974 -2.177326
vt -3.039255 -2.177326
vt -3.174865 -3.193546
vt -2.234015 2.155523
vt -3.242517 2.155523
vt -3.242517 1.147020
vt -2.234015 1.147020
vt 2.501617 -0.695131
vt 3.090383 -0.622983
vt 3.681530 -0.938963
vt 3.090383 -0.890026
vt 3.232398 -2.292599
vt 3.684214 -2.330002
vt -1.966793 -1.229709
vt -2.559963 -1.229709
vt -0.000217 -1.067738
vt 0.592952 -1.067738
vt -2.829652 0.215182
vt -2.376290 0.215182
vt -2.949862 1.147020
vt -3.242517 1.147020
vt -0.269906 -2.451445
vt 0.183456 -2.451445
vt 2.564527 -2.173990
vt 3.014522 -2.118847
vt -1.354050 1.147020
vt -1.354050 1.439676
vt -1.646705 1.439676
vt -1.646705 1.147020
vt -0.682772 -3.193546
vt -0.390117 -3.193546
vt 2.057129 -3.193546
vt 2.347611 -3.157949
vt 3.950859 -3.169402
vt 4.242517 -3.193546
vt 0.857190 1.320650
vt 1.312138 0.940029
vt 1.312137 2.805863
vt 0.978496 3.084996
vt 0.857190 3.455915
vt 0.264498 3.479722
vt 0.014609 1.904261
vt 0.449267 1.886802
vt -1.646705 2.476819
vt -2.234015 2.559990
vt -2.077415 1.208015
vt -1.646705 1.147020
vt -0.366407 0.940029
vt 0.014609 1.394647
vt -0.366407 3.069754
vt -0.645830 2.736355
vt 0.662914 0.947832
vt 0.857189 0.940029
vt 1.686692 1.038909
vt 1.587812 1.206320
vt 1.420401 1.107440
vt 1.519281 0.940029
vt 1.686692 2.388155
vt 1.312138 2.166928
vt -0.557881 4.178443
vt -0.682772 4.029427
vt 1.014346 3.957392
vt 0.865221 4.082154
vt 3.113490 -1.950314
vt 3.540584 -1.985670
vt -1.178357 -0.276334
vt -1.606912 -0.276334
vt 0.952834 -2.009370
vt 1.381388 -2.009370
vt 2.653881 -1.492779
vt 3.079254 -1.440653
vt 2.868966 -2.403289
vt 3.090383 -2.376156
vt -1.354050 1.147020
vt -1.130976 1.147020
vt -1.130976 1.370094
vt -1.354050 1.370094
vt 3.125283 -3.053212
vt 3.347595 -3.071616
vt -0.682772 0.750247
vt -0.905845 0.750247
vt 1.653900 -3.032678
vt 1.876973 -3.032678
vn -0.9969 0.0783 0.0000
vn 0.0000 0.0783 -0.9969
vn 0.9969 0.0783 0.0000
vn 0.0000 0.0783 0.9969
vn 0.0000 -1.0000 0.0000
vn 0.9798 -0.1999 0.0000
vn -0.9940 -0.1097 0.0000
vn -0.9600 0.2800 0.0000
vn 0.0000 -0.0700 0.9975
vn 0.0000 0.1559 -0.9878
vn 0.0000 0.4679 0.8838
vn 0.0000 0.1047 0.9945
vn 0.0000 -0.0480 -0.9988
vn 0.9863 0.1652 0.0000
vn 0.0000 1.0000 0.0000
vn 0.0000 -0.3884 -0.9215
vn 0.9332 0.3595 0.0000
vn -0.9636 -0.2672 0.0000
vn 0.9971 0.0765 0.0000
vn 0.0000 0.3933 -0.9194
vn 0.0000 -0.4421 0.8969
vn -0.9901 -0.1405 0.0000
vn 0.0000 0.4638 -0.8860
vn 0.0000 -0.5717 0.8205
vn -0.9522 0.3056 0.0000
vn 0.8965 -0.4431 0.0000
vn -0.8621 0.5068 0.0000
vn 0.0000 0.0680 0.9977
vn 0.0000 0.0334 -0.9994
vn 0.8993 -0.4373 0.0000
vn 0.9621 -0.2728 0.0000
vn -0.9281 0.3722 0.0000
vn 0.0000 0.0587 0.9983
vn 0.0000 0.0587 -0.9983
usemtl Material.001
s off
f 1/1/1 2/2/1 4/3/1 3/4/1
f 3/5/2 4/6/2 8/7/2 7/8/2
f 7/9/3 8/10/3 6/11/3 5/12/3
f 5/13/4 6/14/4 2/15/4 1/16/4
f 3/17/5 7/18/5 5/19/5 1/20/5
f 6/11/6 8/10/6 12/21/6 11/22/6
f 10/23/7 9/24/7 13/25/7 14/26/7
f 4/3/8 2/2/8 9/24/8 10/23/8
f 2/15/9 6/14/9 11/27/9 9/28/9
f 8/7/10 4/6/10 10/29/10 12/30/10
f 13/31/11 15/32/11 19/33/11 17/34/11
f 9/28/12 11/27/12 15/32/12 13/31/12
f 12/30/13 10/29/13 14/35/13 16/36/13
f 11/22/14 12/21/14 16/37/14 15/38/14
f 20/39/15 18/40/15 17/41/15 19/42/15
f 16/36/16 14/35/16 18/43/16 20/44/16
f 15/38/17 16/37/17 20/45/17 19/46/17
f 14/26/18 13/25/18 17/47/18 18/48/18
f 9/49/19 10/50/19 22/51/19 21/52/19
f 11/53/20 9/54/20 21/55/20 23/56/20
f 10/57/21 12/58/21 24/59/21 22/60/21
f 12/61/22 11/62/22 23/63/22 24/64/22
f 23/56/23 21/55/23 25/65/23 27/66/23
f 25/67/5 26/68/5 28/69/5 27/70/5
f 22/71/24 24/72/24 28/69/24 26/68/24
f 24/64/25 23/63/25 27/73/25 28/74/25
f 21/52/26 22/51/26 26/75/26 25/76/26
f 10/23/27 9/24/27 29/77/27 30/78/27
f 9/28/28 11/27/28 31/79/28 29/80/28
f 12/30/29 10/29/29 30/81/29 32/82/29
f 11/22/30 12/21/30 32/83/30 31/84/30
f 31/84/31 32/83/31 36/85/31 35/86/31
f 33/87/15 35/88/15 36/89/15 34/90/15
f 30/78/32 29/77/32 33/91/32 34/92/32
f 29/80/33 31/79/33 35/93/33 33/94/33
f 32/82/34 30/81/34 34/95/34 36/96/34
