# Blender v2.81 (sub 16) OBJ File: 'tunnel.blend'
# www.blender.org
mtllib tunnel.mtl
o Cylinder
v -27.369123 -0.000002 -27.369123
v 27.369123 0.000002 -27.369123
v 22.545790 9.869468 -18.746155
v -22.545790 9.869464 -18.746155
v 22.545788 13.285983 -15.942299
v -22.545792 13.285979 -15.942299
v 22.545788 16.089848 -12.525789
v -22.545792 16.089844 -12.525789
v 22.545788 18.173307 -8.627921
v -22.545792 18.173304 -8.627921
v 22.545788 19.456297 -4.398486
v -22.545792 19.456293 -4.398486
v 22.545788 19.889513 -0.000019
v -22.545792 19.889509 -0.000019
v 22.545788 19.456306 4.398449
v -22.545792 19.456303 4.398449
v 22.545788 18.173326 8.627887
v -22.545792 18.173323 8.627887
v 22.545788 16.089872 12.525760
v -22.545792 16.089869 12.525760
v 22.545788 13.286015 15.942274
v -22.545792 13.286011 15.942274
v 22.545790 9.869504 18.746134
v -22.545790 9.869500 18.746134
v 22.545790 5.971634 20.829592
v -22.545790 5.971630 20.829592
v 22.545790 1.742198 22.112579
v -22.545790 1.742195 22.112579
v 22.545790 -2.656269 22.545792
v -22.545790 -2.656272 22.545792
v 22.545790 -2.656276 -22.545788
v -22.545790 -2.656279 -22.545788
v -27.369123 0.000007 27.369123
v 27.369123 0.000011 27.369123
v -27.369123 5.339460 26.843231
v 27.369123 5.339464 26.843231
v -27.369123 10.473721 25.285767
v 27.369123 10.473724 25.285767
v -27.369125 15.205482 22.756586
v 27.369122 15.205485 22.756586
v -27.369125 19.352903 19.352880
v 27.369122 19.352907 19.352880
v -27.369125 22.756603 15.205454
v 27.369122 22.756607 15.205454
v -27.369125 25.285780 10.473689
v 27.369122 25.285784 10.473689
v -27.369125 26.843235 5.339427
v 27.369122 26.843239 5.339427
v -27.369125 27.369122 -0.000026
v 27.369122 27.369125 -0.000026
v -27.369125 26.843225 -5.339479
v 27.369122 26.843229 -5.339479
v -27.369125 25.285759 -10.473739
v 27.369122 25.285763 -10.473739
v -27.369125 22.756575 -15.205499
v 27.369122 22.756578 -15.205499
v -27.369125 19.352865 -19.352917
v 27.369122 19.352869 -19.352917
v -27.369125 15.205438 -22.756615
v 27.369122 15.205441 -22.756615
v -27.369123 10.473671 -25.285788
v 27.369123 10.473675 -25.285788
v -27.369123 5.339408 -26.843241
v 27.369123 5.339412 -26.843241
v -22.545790 5.971590 -20.829603
v 22.545790 5.971594 -20.829603
v -22.545790 1.742152 -22.112583
v 22.545790 1.742155 -22.112583
vt -2.104118 3.150993
vt -1.777138 3.150993
vt -1.777138 3.150993
vt 1.473383 -0.615786
vt 1.611879 1.600161
vt 1.473383 1.600161
vt 1.196390 -0.615786
vt 1.334887 1.600161
vt 1.196390 1.600161
vt 1.057893 -0.615786
vt 1.057893 1.600161
vt 0.919396 -0.615786
vt 0.919396 1.600161
vt 0.780900 -0.615786
vt 0.780900 1.600161
vt 0.642403 -0.615786
vt 0.642403 1.600161
vt 0.503906 -0.615786
vt 0.503906 1.600161
vt 0.365410 -0.615786
vt 0.365410 1.600161
vt 0.226913 -0.615786
vt 0.226913 1.600161
vt 0.088416 -0.615786
vt 0.088416 1.600161
vt -0.050080 -0.615786
vt -0.050080 1.600161
vt -0.188577 -0.615786
vt -0.188577 1.600161
vt -0.327074 -0.615786
vt -0.327074 1.600161
vt -0.465570 -0.615786
vt -0.465570 1.600161
vt -0.604067 -0.615786
vt -0.604067 1.600161
vt 2.800575 -2.080680
vt 3.127555 3.150993
vt 3.127555 -2.080680
vt 2.473596 -2.080680
vt 2.800575 3.150993
vt 2.146616 -2.080680
vt 2.473596 3.150993
vt 1.819637 -2.080680
vt 2.146616 3.150993
vt 1.492657 -2.080680
vt 1.819637 3.150993
vt 1.165678 -2.080680
vt 1.492657 3.150993
vt 0.838698 -2.080680
vt 1.165678 3.150993
vt 0.511719 -2.080680
vt 0.838698 3.150993
vt 0.184739 -2.080680
vt 0.511719 3.150993
vt -0.142240 -2.080680
vt 0.184739 3.150993
vt -0.469220 -2.080680
vt -0.142240 3.150993
vt -0.796199 -2.080680
vt -0.469220 3.150993
vt -1.123179 -2.080680
vt -0.796199 3.150993
vt -1.450159 -2.080680
vt -1.123179 3.150993
vt 1.334887 -0.615786
vt -1.777138 -2.080680
vt -1.450159 3.150993
vt -2.104118 -2.080680
vt 2.146616 -2.080680
vt -0.469220 -2.080680
vt -0.796199 -2.080680
vt -2.104118 3.150993
vt 2.146616 3.150993
vt 2.473596 3.150993
vt -0.469220 3.150993
vt 0.511719 -2.080680
vt 0.511719 3.150993
vt 0.838698 3.150993
vt 1.819637 -2.080680
vt -1.123179 -2.080680
vt 1.819637 3.150993
vt -0.796199 3.150993
vt 0.184739 -2.080680
vt 1.492657 -2.080680
vt -1.450159 -2.080680
vt 3.127555 -2.080680
vt 1.492657 3.150993
vt -1.123179 3.150993
vt 2.800575 -2.080680
vt -0.142240 -2.080680
vt 2.800575 3.150993
vt 3.127555 3.150993
vt 0.184739 3.150993
vt 1.165678 -2.080680
vt -1.777138 -2.080680
vt 1.165678 3.150993
vt -1.450159 3.150993
vt 2.473596 -2.080680
vt -0.142240 3.150993
vt 0.838698 -2.080680
vt -2.104118 -2.080680
vt 1.611879 -0.615786
vn -0.8059 0.4273 0.4096
vn -0.4130 0.1690 -0.8949
vn -0.8910 -0.0726 0.4481
vn 0.3321 0.8115 -0.4807
vn 0.4130 0.1690 -0.8949
vn -0.4526 0.4901 -0.7449
vn 0.4346 0.3376 -0.8349
vn 0.4526 0.4901 -0.7449
vn -0.4670 0.6216 -0.6288
vn 0.4670 0.6216 -0.6288
vn -0.4779 0.7282 -0.4912
vn 0.4779 0.7282 -0.4912
vn -0.4855 0.8067 -0.3369
vn 0.4855 0.8067 -0.3369
vn -0.4901 0.8547 -0.1713
vn 0.4901 0.8547 -0.1713
vn -0.4916 0.8708 0.0000
vn 0.4916 0.8708 0.0000
vn -0.4901 0.8547 0.1713
vn 0.4901 0.8547 0.1713
vn -0.4855 0.8067 0.3369
vn 0.4855 0.8067 0.3369
vn -0.4779 0.7282 0.4912
vn 0.4779 0.7282 0.4912
vn -0.4670 0.6216 0.6288
vn 0.4670 0.6216 0.6288
vn -0.4526 0.4901 0.7449
vn 0.4526 0.4901 0.7449
vn -0.4346 0.3376 0.8349
vn 0.4346 0.3376 0.8349
vn -0.4130 0.1690 0.8949
vn 0.4130 0.1690 0.8949
vn -0.3321 0.8115 0.4807
vn 0.3321 0.8115 0.4807
vn 0.8910 -0.0726 -0.4481
vn -0.8059 0.4273 -0.4096
vn 0.8059 0.4273 -0.4096
vn 0.8816 -0.1683 -0.4409
vn -0.8910 -0.0726 -0.4481
vn 0.8735 -0.2616 -0.4105
vn -0.8816 -0.1683 -0.4409
vn 0.8668 -0.3468 -0.3582
vn -0.8735 -0.2616 -0.4105
vn 0.8616 -0.4187 -0.2868
vn -0.8668 -0.3468 -0.3582
vn 0.8579 -0.4732 -0.2001
vn -0.8616 -0.4187 -0.2868
vn 0.8557 -0.5072 -0.1028
vn -0.8579 -0.4732 -0.2001
vn 0.8549 -0.5187 0.0000
vn -0.8557 -0.5072 -0.1028
vn 0.8557 -0.5072 0.1028
vn -0.8549 -0.5187 0.0000
vn 0.8579 -0.4732 0.2001
vn -0.8557 -0.5072 0.1028
vn 0.8616 -0.4187 0.2868
vn -0.8579 -0.4732 0.2001
vn 0.8668 -0.3468 0.3582
vn -0.8616 -0.4187 0.2868
vn 0.8735 -0.2616 0.4105
vn -0.8668 -0.3468 0.3582
vn 0.8816 -0.1683 0.4409
vn -0.8735 -0.2616 0.4105
vn -0.4346 0.3376 -0.8349
vn 0.8910 -0.0726 0.4481
vn -0.8816 -0.1683 0.4409
vn 0.8059 0.4273 0.4096
vn -0.3321 0.8115 -0.4807
g Cylinder_Cylinder_Material.001
usemtl Material.001
s 1
f 2/1/1 68/2/2 64/3/3
f 68/4/2 32/5/4 67/6/5
f 3/7/6 65/8/7 4/9/8
f 5/10/9 4/9/8 6/11/10
f 7/12/11 6/11/10 8/13/12
f 9/14/13 8/13/12 10/15/14
f 11/16/15 10/15/14 12/17/16
f 13/18/17 12/17/16 14/19/18
f 15/20/19 14/19/18 16/21/20
f 17/22/21 16/21/20 18/23/22
f 19/24/23 18/23/22 20/25/24
f 21/26/25 20/25/24 22/27/26
f 23/28/27 22/27/26 24/29/28
f 25/30/29 24/29/28 26/31/30
f 27/32/31 26/31/30 28/33/32
f 29/34/33 28/33/32 30/35/34
f 35/36/35 34/37/36 33/38/37
f 37/39/38 36/40/39 35/36/35
f 39/41/40 38/42/41 37/39/38
f 41/43/42 40/44/43 39/41/40
f 43/45/44 42/46/45 41/43/42
f 45/47/46 44/48/47 43/45/44
f 47/49/48 46/50/49 45/47/46
f 49/51/50 48/52/51 47/49/48
f 51/53/52 50/54/53 49/51/50
f 53/55/54 52/56/55 51/53/52
f 55/57/56 54/58/57 53/55/54
f 57/59/58 56/60/59 55/57/56
f 59/61/60 58/62/61 57/59/58
f 61/63/62 60/64/63 59/61/60
f 66/65/64 67/6/5 65/8/7
f 63/66/65 62/67/66 61/63/62
f 1/68/67 64/3/3 63/66/65
f 37/39/38 24/69/28 39/41/40
f 57/59/58 8/70/12 6/71/10
f 1/68/67 31/72/68 2/1/1
f 38/42/41 23/73/27 25/74/29
f 58/62/61 7/75/11 56/60/59
f 47/49/48 14/76/18 49/51/50
f 48/52/51 13/77/17 15/78/19
f 39/41/40 22/79/26 41/43/42
f 59/61/60 6/71/10 4/80/8
f 40/44/43 21/81/25 23/73/27
f 60/64/63 5/82/9 58/62/61
f 51/53/52 14/76/18 12/83/16
f 52/56/55 13/77/17 50/54/53
f 41/43/42 20/84/24 43/45/44
f 61/63/62 4/80/8 65/85/7
f 34/37/36 30/86/34 33/38/37
f 42/46/45 19/87/23 21/81/25
f 62/67/66 3/88/6 60/64/63
f 33/38/37 28/89/32 35/36/35
f 53/55/54 12/83/16 10/90/14
f 34/37/36 27/91/31 29/92/33
f 54/58/57 11/93/15 52/56/55
f 43/45/44 18/94/22 45/47/46
f 63/66/65 65/85/7 67/95/5
f 44/48/47 17/96/21 19/87/23
f 64/3/3 66/97/64 62/67/66
f 35/36/35 26/98/30 37/39/38
f 55/57/56 10/90/14 8/70/12
f 36/40/39 25/74/29 27/91/31
f 56/60/59 9/99/13 54/58/57
f 45/47/46 16/100/20 47/49/48
f 1/68/67 67/95/5 32/101/4
f 46/50/49 15/78/19 17/96/21
f 2/1/1 31/72/68 68/2/2
f 68/4/2 31/102/68 32/5/4
f 3/7/6 66/65/64 65/8/7
f 5/10/9 3/7/6 4/9/8
f 7/12/11 5/10/9 6/11/10
f 9/14/13 7/12/11 8/13/12
f 11/16/15 9/14/13 10/15/14
f 13/18/17 11/16/15 12/17/16
f 15/20/19 13/18/17 14/19/18
f 17/22/21 15/20/19 16/21/20
f 19/24/23 17/22/21 18/23/22
f 21/26/25 19/24/23 20/25/24
f 23/28/27 21/26/25 22/27/26
f 25/30/29 23/28/27 24/29/28
f 27/32/31 25/30/29 26/31/30
f 29/34/33 27/32/31 28/33/32
f 35/36/35 36/40/39 34/37/36
f 37/39/38 38/42/41 36/40/39
f 39/41/40 40/44/43 38/42/41
f 41/43/42 42/46/45 40/44/43
f 43/45/44 44/48/47 42/46/45
f 45/47/46 46/50/49 44/48/47
f 47/49/48 48/52/51 46/50/49
f 49/51/50 50/54/53 48/52/51
f 51/53/52 52/56/55 50/54/53
f 53/55/54 54/58/57 52/56/55
f 55/57/56 56/60/59 54/58/57
f 57/59/58 58/62/61 56/60/59
f 59/61/60 60/64/63 58/62/61
f 61/63/62 62/67/66 60/64/63
f 66/65/64 68/4/2 67/6/5
f 63/66/65 64/3/3 62/67/66
f 1/68/67 2/1/1 64/3/3
f 37/39/38 26/98/30 24/69/28
f 57/59/58 55/57/56 8/70/12
f 1/68/67 32/101/4 31/72/68
f 38/42/41 40/44/43 23/73/27
f 58/62/61 5/82/9 7/75/11
f 47/49/48 16/100/20 14/76/18
f 48/52/51 50/54/53 13/77/17
f 39/41/40 24/69/28 22/79/26
f 59/61/60 57/59/58 6/71/10
f 40/44/43 42/46/45 21/81/25
f 60/64/63 3/88/6 5/82/9
f 51/53/52 49/51/50 14/76/18
f 52/56/55 11/93/15 13/77/17
f 41/43/42 22/79/26 20/84/24
f 61/63/62 59/61/60 4/80/8
f 34/37/36 29/92/33 30/86/34
f 42/46/45 44/48/47 19/87/23
f 62/67/66 66/97/64 3/88/6
f 33/38/37 30/86/34 28/89/32
f 53/55/54 51/53/52 12/83/16
f 34/37/36 36/40/39 27/91/31
f 54/58/57 9/99/13 11/93/15
f 43/45/44 20/84/24 18/94/22
f 63/66/65 61/63/62 65/85/7
f 44/48/47 46/50/49 17/96/21
f 64/3/3 68/2/2 66/97/64
f 35/36/35 28/89/32 26/98/30
f 55/57/56 53/55/54 10/90/14
f 36/40/39 38/42/41 25/74/29
f 56/60/59 7/75/11 9/99/13
f 45/47/46 18/94/22 16/100/20
f 1/68/67 63/66/65 67/95/5
f 46/50/49 48/52/51 15/78/19
